<?xml version="1.0" encoding="UTF-8"?>
<svg width="17px" height="14px" viewBox="0 0 17 14" version="1.1" xmlns="http://www.w3.org/2000/svg" xmlns:xlink="http://www.w3.org/1999/xlink">
    <!-- Generator: Sketch 52.1 (67048) - http://www.bohemiancoding.com/sketch -->
    <title>Shape</title>
    <desc>Created with Sketch.</desc>
    <g id="Portfolio-Website" stroke="none" stroke-width="1" fill="none" fill-rule="evenodd">
        <g id="Desktop" transform="translate(-743.000000, -443.000000)" fill="#007FFF">
            <g id="Socials" transform="translate(743.000000, 442.000000)">
                <path d="M17,2.63554167 C16.3745417,2.91320833 15.7023333,3.10020833 14.9968333,3.1845 C15.7172083,2.753125 16.2704167,2.06958333 16.530375,1.255 C15.85675,1.6545 15.1101667,1.94491667 14.3154167,2.10145833 C13.6800417,1.42358333 12.7726667,1 11.7696667,1 C9.517875,1 7.86320833,3.10091667 8.37179167,5.281875 C5.474,5.13666667 2.90416667,3.74833333 1.183625,1.63820833 C0.269875,3.20575 0.70975,5.256375 2.26241667,6.29479167 C1.6915,6.276375 1.15316667,6.11983333 0.683541667,5.85845833 C0.645291667,7.47416667 1.80341667,8.98575 3.48075,9.32220833 C2.989875,9.455375 2.45225,9.48654167 1.90541667,9.38170833 C2.34883333,10.7672083 3.63658333,11.7751667 5.16375,11.8035 C3.6975,12.953125 1.85016667,13.4666667 0,13.2485 C1.54345833,14.2380417 3.37733333,14.8153333 5.3465,14.8153333 C11.8220833,14.8153333 15.480625,9.34629167 15.259625,4.44108333 C15.9410417,3.94879167 16.5325,3.33466667 17,2.63554167 Z" id="Shape"></path>
            </g>
        </g>
    </g>
</svg>