<?xml version="1.0" encoding="UTF-8"?>
<svg width="21px" height="13px" viewBox="0 0 21 13" version="1.1" xmlns="http://www.w3.org/2000/svg" xmlns:xlink="http://www.w3.org/1999/xlink">
    <!-- Generator: Sketch 52.1 (67048) - http://www.bohemiancoding.com/sketch -->
    <title>Shape</title>
    <desc>Created with Sketch.</desc>
    <g id="Portfolio-Website" stroke="none" stroke-width="1" fill="none" fill-rule="evenodd">
        <g id="Desktop" transform="translate(-790.000000, -443.000000)" fill="#007FFF" fill-rule="nonzero">
            <g id="Socials" transform="translate(743.000000, 442.000000)">
                <path d="M66.0664607,2.73333333 L59.9998596,2.73333333 L59.9998596,1 L66.0664607,1 L66.0664607,2.73333333 Z M67.5623113,11.4 C67.1792488,12.5240667 65.8038636,14 63.1414924,14 C60.4773878,14 58.3194111,12.5015333 58.3194111,9.08166667 C58.3194111,5.693 60.3343893,3.951 63.0565599,3.951 C65.7275977,3.951 67.3586468,5.4954 67.714843,7.78686667 C67.7824422,8.2254 67.8093086,8.81646667 67.7971754,9.64153333 L60.8405172,9.64153333 C60.9531826,12.4244 63.8590846,12.5119333 64.8167409,11.4 L67.5623113,11.4 Z M60.9011832,7.93333333 L65.2041368,7.93333333 C65.1131377,6.5926 64.219614,6.0102 63.0574266,6.0102 C61.7869069,6.0102 61.0840479,6.6758 60.9011832,7.93333333 Z M52.6038061,13.9896 L47,13.9896 L47,1.0182 L53.0258683,1.0182 C57.7716837,1.0884 57.8618161,5.73633333 55.3831761,7.0034 C58.3826771,8.0954 58.4832093,13.9896 52.6038061,13.9896 Z M49.5999719,6.2 L52.7060717,6.2 C54.8796482,6.2 55.2245779,3.6 52.4356746,3.6 L49.5999719,3.6 L49.5999719,6.2 Z M52.5388068,8.8 L49.5999719,8.8 L49.5999719,11.4138667 L52.495474,11.4138667 C55.1431121,11.4138667 54.9810471,8.8 52.5388068,8.8 Z" id="Shape"></path>
            </g>
        </g>
    </g>
</svg>