<?xml version="1.0" encoding="UTF-8"?>
<svg width="16px" height="16px" viewBox="0 0 16 16" version="1.1" xmlns="http://www.w3.org/2000/svg" xmlns:xlink="http://www.w3.org/1999/xlink">
    <!-- Generator: Sketch 52.1 (67048) - http://www.bohemiancoding.com/sketch -->
    <title>instagram</title>
    <desc>Created with Sketch.</desc>
    <g id="Portfolio-Website" stroke="none" stroke-width="1" fill="none" fill-rule="evenodd">
        <g id="Desktop" transform="translate(-841.000000, -442.000000)" fill="#007FFF" fill-rule="nonzero">
            <g id="Socials" transform="translate(743.000000, 442.000000)">
                <path d="M106,0 C108.172667,-3.23815048e-16 108.445333,0.00933333333 109.299333,0.0486666667 C112.207333,0.182 113.821333,1.79933333 113.952,4.702 C113.990667,5.55533333 114,5.82733333 114,8 C114,10.1726667 113.990667,10.4453333 113.951333,11.2986667 C113.82,14.2066667 112.201333,15.8186667 109.298667,15.952 C108.445333,15.9906667 108.172667,16 106,16 C103.827333,16 103.555333,15.9906667 102.701333,15.952 C99.7933333,15.8186667 98.1813333,14.204 98.048,11.2986667 C98.0093333,10.4453333 98,10.1726667 98,8 C98,5.82733333 98.0093333,5.55533333 98.0486667,4.70133333 C98.182,1.79333333 99.7966667,0.181333333 102.702,0.048 C103.555333,0.00933333333 103.827333,0 106,0 Z M106,3.892 C103.731333,3.892 101.892,5.73133333 101.892,8 C101.892,10.2686667 103.731333,12.1086667 106,12.1086667 C108.268667,12.1086667 110.108,10.2693333 110.108,8 C110.108,5.73133333 108.268667,3.892 106,3.892 Z M106,10.6666667 C104.527333,10.6666667 103.333333,9.47333333 103.333333,8 C103.333333,6.52733333 104.527333,5.33333333 106,5.33333333 C107.472667,5.33333333 108.666667,6.52733333 108.666667,8 C108.666667,9.47333333 107.472667,10.6666667 106,10.6666667 Z M110.270667,2.77 C109.74,2.77 109.31,3.2 109.31,3.73 C109.31,4.26 109.74,4.69 110.270667,4.69 C110.800667,4.69 111.23,4.26 111.23,3.73 C111.23,3.2 110.800667,2.77 110.270667,2.77 Z" id="instagram"></path>
            </g>
        </g>
    </g>
</svg>